<svg width="24" height="25" viewBox="0 0 24 25" fill="none" xmlns="http://www.w3.org/2000/svg">
<path fill-rule="evenodd" clip-rule="evenodd" d="M18.926 9.7635L15.452 15.2735C14.898 16.1495 13.716 16.3675 12.886 15.7475L10.124 13.6755C9.87 13.4835 9.522 13.4875 9.27 13.6775L5.54 16.5095C5.042 16.8875 4.388 16.2895 4.724 15.7615L8.2 10.2515C8.752 9.3755 9.936 9.1555 10.764 9.7775L13.528 11.8495C13.782 12.0395 14.13 12.0375 14.382 11.8475L18.112 9.0155C18.61 8.6375 19.262 9.2355 18.926 9.7635ZM11.826 0.9375C5.162 0.9375 0 5.8175 0 12.4095C0 15.8575 1.412 18.8355 3.716 20.8935C3.906 21.0675 4.024 21.3075 4.034 21.5675L4.098 23.6715C4.12 24.3415 4.81 24.7775 5.424 24.5095L7.772 23.4735C7.97 23.3855 8.192 23.3695 8.4 23.4255C9.478 23.7235 10.63 23.8795 11.826 23.8795C18.488 23.8795 23.65 18.9995 23.65 12.4095C23.65 5.8175 18.488 0.9375 11.826 0.9375Z" fill="white"/>
</svg>
