<svg width="25" height="25" viewBox="0 0 25 25" fill="none" xmlns="http://www.w3.org/2000/svg">
<path fill-rule="evenodd" clip-rule="evenodd" d="M12.797 22.3395C18.137 22.1875 22.355 17.7175 22.201 12.3795C22.051 7.1335 17.737 2.9695 12.523 2.9695C12.429 2.9695 12.337 2.9715 12.243 2.9735C6.90296 3.1295 2.68296 7.5955 2.83896 12.9355C2.88496 14.5655 3.34296 16.1655 4.16696 17.5615L4.34296 17.8655L3.57696 22.0735L7.74096 21.0915L8.05696 21.2555C9.42696 21.9675 10.967 22.3435 12.519 22.3435C12.611 22.3435 12.705 22.3415 12.797 22.3395ZM20.631 4.1995C22.843 6.3195 24.119 9.1655 24.233 12.2275C24.339 15.2195 23.295 18.1575 21.315 20.4035C19.143 22.8655 16.119 24.2795 12.855 24.3735C12.745 24.3755 12.633 24.3775 12.519 24.3775C10.761 24.3775 9.01896 23.9795 7.43896 23.2195L1.30696 24.5855C1.29896 24.5875 1.29496 24.5875 1.28896 24.5875C1.23496 24.5875 1.19096 24.5415 1.19896 24.4855L2.23696 18.2835C1.35096 16.6655 0.856961 14.8455 0.804961 12.9935C0.714961 9.8655 1.84896 6.8855 3.99896 4.6115C6.22696 2.2515 9.26896 0.9375 12.529 0.9375H12.589C15.583 0.9515 18.471 2.1275 20.631 4.1995ZM17.762 15.1931C18.052 15.3491 18.244 15.4291 18.314 15.5531C18.386 15.6791 18.366 16.2671 18.1 16.9471C17.834 17.6271 16.614 18.2531 16.072 18.2851C15.914 18.2951 15.758 18.3171 15.554 18.3171C15.064 18.3171 14.302 18.1891 12.564 17.4411C9.61396 16.1691 7.81796 13.0451 7.67796 12.8431C7.53796 12.6431 6.52796 11.2111 6.56996 9.7631C6.61596 8.3151 7.39596 7.6271 7.67596 7.3391C7.94396 7.0671 8.24796 6.9951 8.44796 6.9951H8.46996C8.66796 7.0011 8.86396 7.0071 9.03596 7.0191C9.24396 7.0351 9.47396 7.0531 9.68196 7.5491C9.92396 8.1391 10.452 9.6111 10.52 9.7611C10.59 9.9091 10.634 10.0831 10.53 10.2771C10.424 10.4711 10.374 10.5911 10.22 10.7591C10.068 10.9271 9.89796 11.1351 9.76396 11.2611C9.61196 11.4031 9.45396 11.5591 9.61596 11.8571C9.77796 12.1571 10.338 13.1411 11.19 13.9471C12.282 14.9851 13.158 15.3251 13.506 15.4871C13.632 15.5471 13.736 15.5731 13.828 15.5731C13.954 15.5731 14.054 15.5211 14.148 15.4251C14.332 15.2391 14.884 14.5971 15.116 14.3011C15.236 14.1471 15.346 14.0911 15.466 14.0911C15.56 14.0911 15.662 14.1271 15.782 14.1731C16.048 14.2791 17.47 15.0371 17.762 15.1931Z" fill="white"/>
</svg>
